<svg xmlns="http://www.w3.org/2000/svg" xmlns:xlink="http://www.w3.org/1999/xlink" version="1.1" x="0px" y="0px" viewBox="0 0 32 40" style="enable-background:new 0 0 32 32;" xml:space="preserve"><g><g><path d="M25,18.7695313c-0.5527344,0-1-0.4477539-1-1V8h-9.7695313c-0.5527344,0-1-0.4477539-1-1s0.4472656-1,1-1H25    c0.5527344,0,1,0.4477539,1,1v10.7695313C26,18.3217773,25.5527344,18.7695313,25,18.7695313z"/></g><g><path d="M7,26c-0.2558594,0-0.5117188-0.0976563-0.7070313-0.2929688c-0.390625-0.390625-0.390625-1.0234375,0-1.4140625l18-18    c0.390625-0.390625,1.0234375-0.390625,1.4140625,0s0.390625,1.0234375,0,1.4140625l-18,18    C7.5117188,25.9023438,7.2558594,26,7,26z"/></g></g><text x="0" y="47" fill="#000000" font-size="5px" font-weight="bold" font-family="'Helvetica Neue', Helvetica, Arial-Unicode, Arial, Sans-serif">Created by Royyan Wijaya</text><text x="0" y="52" fill="#000000" font-size="5px" font-weight="bold" font-family="'Helvetica Neue', Helvetica, Arial-Unicode, Arial, Sans-serif">from the Noun Project</text></svg>