<svg xmlns="http://www.w3.org/2000/svg" viewBox="0 0 95.1 83"><title>upload2</title><g id="Layer_1" data-name="Layer 1"><path d="M91.7,57.7a5.8,5.8,0,0,0-5.8,5.8V80H14V63.5a5.8,5.8,0,0,0-11.6,0V85.7a5.8,5.8,0,0,0,5.8,5.8H91.7a5.8,5.8,0,0,0,5.8-5.8V63.5A5.8,5.8,0,0,0,91.7,57.7Z" transform="translate(-2.4 -8.5)"/><path d="M36.9,35.6l7.3-7.3V64.9a5.8,5.8,0,0,0,11.6,0V28.1l7.5,7.5a5.8,5.8,0,1,0,8.2-8.2L54.3,10.2a5.79,5.79,0,0,0-8.2,0L28.9,27.4a5.73,5.73,0,0,0,0,8.2A5.5,5.5,0,0,0,36.9,35.6Z" transform="translate(-2.4 -8.5)"/></g></svg>